# xmcd CD database file
#
# Track frame offsets:
#	150
#	17735
#	31057
#	58791
#	71448
#	85150
#	98808
#	121695
#	137599
#	149749
#	172888
#	204807
#	220572
#	233889
#	245777
#	264004
#	283399
#	304517
#
# Disc length: 4285 seconds
#
# Revision: 1
# Processed by: cddbd v1.5.2PL0 Copyright (c) Steve Scherf et al.
# Submitted via: CDex 1.51
#
DISCID=f410bb12
DTITLE=Various Artist - Proburn-101
DYEAR=1900
DGENRE=Blues
TTITLE0=Magic! - Rude
TTITLE1=Michel Telo - Ai Se Eu Te Pego
TTITLE2=Joe Walsh - Life's Been Good
TTITLE3=Andrew Sisters - Boogie Woogie Bugle Boy
TTITLE4=beatles The - I Saw Her Standing There
TTITLE5=Blues Brothers The - Soul Man
TTITLE6=Bobby McFerrin - Don't Worry Be Happy
TTITLE7=Cab Calloway - Minnie The Moocher
TTITLE8=Danny and The Juniors - At The Hop
TTITLE9=Stevie Wonder - Boogie On Reggae Woman
TTITLE10=Garth Brooks - Friends In Low Places (live)
TTITLE11=Garth Brooks - The Dance
TTITLE12=Los Lobos - La Bamba (SC)
TTITLE13=Little Eva - The Locomotion
TTITLE14=Kenny Rogers - Lady
TTITLE15=Pointer Sisters The - Jump (for my love)
TTITLE16=Bruce Springsteen - Born To Run
TTITLE17=Pointer Sisters The - Fire
EXTD=
EXTT0=
EXTT1=
EXTT2=
EXTT3=
EXTT4=
EXTT5=
EXTT6=
EXTT7=
EXTT8=
EXTT9=
EXTT10=
EXTT11=
EXTT12=
EXTT13=
EXTT14=
EXTT15=
EXTT16=
EXTT17=
PLAYORDER=
